<svg xmlns="http://www.w3.org/2000/svg" viewBox="0 0 32 32" shape-rendering="crispEdges">
  <!-- Background -->
  <rect width="32" height="32" fill="#8b5a3c"/>
  
  <!-- Cat head outline -->
  <rect x="8" y="10" width="16" height="14" fill="#ffaa44"/>
  
  <!-- Left ear -->
  <rect x="8" y="8" width="2" height="2" fill="#ffaa44"/>
  <rect x="10" y="6" width="2" height="2" fill="#ffaa44"/>
  <rect x="10" y="8" width="2" height="2" fill="#ffaa44"/>
  
  <!-- Right ear -->
  <rect x="22" y="8" width="2" height="2" fill="#ffaa44"/>
  <rect x="20" y="6" width="2" height="2" fill="#ffaa44"/>
  <rect x="20" y="8" width="2" height="2" fill="#ffaa44"/>
  
  <!-- Left eye -->
  <rect x="11" y="13" width="2" height="2" fill="#000"/>
  <rect x="13" y="13" width="2" height="2" fill="#000"/>
  <rect x="12" y="14" width="2" height="2" fill="#000"/>
  
  <!-- Right eye -->
  <rect x="19" y="13" width="2" height="2" fill="#000"/>
  <rect x="21" y="13" width="2" height="2" fill="#000"/>
  <rect x="20" y="14" width="2" height="2" fill="#000"/>
  
  <!-- Nose -->
  <rect x="15" y="18" width="2" height="2" fill="#ff69b4"/>
  
  <!-- Mouth -->
  <rect x="14" y="20" width="1" height="1" fill="#000"/>
  <rect x="17" y="20" width="1" height="1" fill="#000"/>
  <rect x="13" y="21" width="1" height="1" fill="#000"/>
  <rect x="18" y="21" width="1" height="1" fill="#000"/>
  
  <!-- Whiskers left -->
  <rect x="6" y="16" width="2" height="1" fill="#000"/>
  <rect x="5" y="17" width="2" height="1" fill="#000"/>
  <rect x="5" y="19" width="2" height="1" fill="#000"/>
  
  <!-- Whiskers right -->
  <rect x="24" y="16" width="2" height="1" fill="#000"/>
  <rect x="25" y="17" width="2" height="1" fill="#000"/>
  <rect x="25" y="19" width="2" height="1" fill="#000"/>
  
  <!-- Cheek highlights -->
  <rect x="9" y="16" width="1" height="1" fill="#ffcc88"/>
  <rect x="22" y="16" width="1" height="1" fill="#ffcc88"/>
</svg>
